<svg width="1061" height="641" viewBox="0 0 1061 641" fill="none" xmlns="http://www.w3.org/2000/svg">
<g filter="url(#filter0_f_450_4378)">
<path d="M597 321C597 360.765 564.765 393 525 393C485.235 393 453 360.765 453 321C453 281.235 485.235 249 525 249C564.765 249 597 281.235 597 321Z" fill="white" fill-opacity="0.5"/>
</g>
<path d="M468.262 390.425L341.5 500" stroke="white" stroke-opacity="0.1" stroke-width="2"/>
<line x1="452.205" y1="359.979" x2="147.205" y2="423.979" stroke="white" stroke-opacity="0.1" stroke-width="2"/>
<line x1="441" y1="314" x2="273" y2="314" stroke="white" stroke-opacity="0.1" stroke-width="2"/>
<line x1="482.404" y1="254.803" x2="385.404" y2="182.803" stroke="white" stroke-opacity="0.1" stroke-width="2"/>
<line x1="460.931" y1="263.998" x2="71.9307" y2="236.998" stroke="white" stroke-opacity="0.1" stroke-width="2"/>
<line x1="756.125" y1="285.992" x2="621.125" y2="302.992" stroke="white" stroke-opacity="0.1" stroke-width="2"/>
<line x1="869.331" y1="175.944" x2="601.331" y2="269.944" stroke="white" stroke-opacity="0.1" stroke-width="2"/>
<path d="M736 463L601 383.5" stroke="white" stroke-opacity="0.1" stroke-width="2"/>
<line x1="920.778" y1="402.975" x2="600.778" y2="329.975" stroke="white" stroke-opacity="0.1" stroke-width="2"/>
<line x1="317.807" y1="151.981" x2="205.807" y2="129.981" stroke="white" stroke-opacity="0.1" stroke-width="2"/>
<line x1="776" y1="511.986" x2="777" y2="583.986" stroke="white" stroke-opacity="0.1" stroke-width="2"/>
<line x1="893.541" y1="533.888" x2="806.541" y2="488.888" stroke="white" stroke-opacity="0.1" stroke-width="2"/>
<line x1="293.583" y1="553.813" x2="240.583" y2="591.813" stroke="white" stroke-opacity="0.1" stroke-width="2"/>
<line x1="403.377" y1="584.782" x2="344.377" y2="537.782" stroke="white" stroke-opacity="0.1" stroke-width="2"/>
<line x1="984.306" y1="250.72" x2="928.306" y2="196.72" stroke="white" stroke-opacity="0.1" stroke-width="2"/>
<line x1="1001.17" y1="148.985" x2="938.172" y2="159.985" stroke="white" stroke-opacity="0.1" stroke-width="2"/>
<line x1="920.047" y1="128.697" x2="941.047" y2="62.6968" stroke="white" stroke-opacity="0.1" stroke-width="2"/>
<line x1="568.219" y1="238.375" x2="656.219" y2="128.375" stroke="white" stroke-opacity="0.1" stroke-width="2"/>
<line x1="260.712" y1="45.2974" x2="339.712" y2="125.297" stroke="white" stroke-opacity="0.1" stroke-width="2"/>
<rect x="199" y="278" width="73" height="73" rx="36.5" fill="black"/>
<rect x="204" y="283" width="63" height="63" rx="31.5" fill="black"/>
<mask id="mask0_450_4378" style="mask-type:luminance" maskUnits="userSpaceOnUse" x="209" y="302" width="53" height="25">
<path d="M209.061 326.5H261.939V302.5H209.061V326.5Z" fill="white"/>
</mask>
<g mask="url(#mask0_450_4378)">
<path d="M255.267 324.409V323.848H255.679C255.953 323.848 256.028 323.932 256.028 324.096C256.028 324.264 255.954 324.4 255.631 324.409H255.267ZM255.556 324.751C255.675 324.762 255.789 324.751 255.875 324.841C255.973 324.945 255.973 325.12 255.998 325.309C256.013 325.438 256.048 325.577 256.073 325.701H256.51C256.435 325.503 256.411 325.273 256.381 325.065C256.345 324.827 256.312 324.693 256.008 324.633V324.622C256.302 324.563 256.455 324.365 256.455 324.111C256.455 323.615 256.037 323.505 255.636 323.505H254.925V325.701H255.267V324.751H255.556ZM255.665 326.5C256.7 326.5 257.528 325.667 257.528 324.628C257.528 323.599 256.7 322.764 255.665 322.764C254.627 322.764 253.792 323.599 253.792 324.628C253.792 325.667 254.627 326.5 255.665 326.5ZM255.665 326.173C254.811 326.173 254.121 325.482 254.121 324.628C254.121 323.784 254.811 323.092 255.665 323.092C256.515 323.092 257.201 323.784 257.201 324.628C257.201 325.482 256.515 326.173 255.665 326.173Z" fill="#EE2722"/>
<path d="M252.507 307.644H249.506V310.642H252.507C253.219 310.642 253.792 311.222 253.792 311.93C253.792 312.643 253.219 313.215 252.507 313.215H249.506V316.215H252.507C254.875 316.215 256.793 314.296 256.793 311.93C256.793 309.563 254.875 307.644 252.507 307.644ZM235.407 323.505C238.999 323.505 242.094 321.402 243.54 318.357H247.365V323.505H249.506V318.357H252.507C256.06 318.357 258.938 315.479 258.938 311.93C258.938 308.379 256.06 305.5 252.507 305.5H247.365V313.215H244.314C243.691 308.855 239.941 305.5 235.407 305.5H224.855L214.358 323.505H216.862L219.862 318.357H230.649V323.505H235.407ZM261.939 311.93C261.939 317.137 257.715 321.357 252.507 321.357V326.5H244.366V322.488C242.163 324.951 238.969 326.5 235.407 326.5H227.648V321.357H221.585L218.585 326.5H209.061L223.059 302.5H235.407C238.969 302.5 242.163 304.054 244.366 306.516V302.5H252.507C257.715 302.5 261.939 306.724 261.939 311.93ZM227.648 307.644V313.215H222.862L221.114 316.215H230.649V307.644H227.648ZM242.266 314.5C242.266 318.288 239.194 321.357 235.407 321.357H232.791V318.357H235.407C237.539 318.357 239.267 316.633 239.267 314.5C239.267 312.372 237.539 310.642 235.407 310.642H232.791V307.644H235.407C239.194 307.644 242.266 310.714 242.266 314.5Z" fill="#EE2722"/>
<path d="M252.507 307.644H249.506V310.642H252.507C253.219 310.642 253.792 311.222 253.792 311.93C253.792 312.643 253.219 313.215 252.507 313.215H249.506V316.215H252.507C254.875 316.215 256.793 314.296 256.793 311.93C256.793 309.563 254.875 307.644 252.507 307.644ZM235.407 323.505C238.999 323.505 242.094 321.402 243.54 318.357H247.365V323.505H249.506V318.357H252.507C256.06 318.357 258.938 315.479 258.938 311.93C258.938 308.379 256.06 305.5 252.507 305.5H247.365V313.215H244.314C243.691 308.855 239.941 305.5 235.407 305.5H224.855L214.358 323.505H216.862L219.862 318.357H230.649V323.505H235.407ZM261.939 311.93C261.939 317.137 257.715 321.357 252.507 321.357V326.5H244.366V322.488C242.163 324.951 238.969 326.5 235.407 326.5H227.648V321.357H221.585L218.585 326.5H209.061L223.059 302.5H235.407C238.969 302.5 242.163 304.054 244.366 306.516V302.5H252.507C257.715 302.5 261.939 306.724 261.939 311.93ZM227.648 307.644V313.215H222.862L221.114 316.215H230.649V307.644H227.648ZM242.266 314.5C242.266 318.288 239.194 321.357 235.407 321.357H232.791V318.357H235.407C237.539 318.357 239.267 316.633 239.267 314.5C239.267 312.372 237.539 310.642 235.407 310.642H232.791V307.644H235.407C239.194 307.644 242.266 310.714 242.266 314.5Z" fill="#EE2722"/>
<path d="M252.507 307.644H249.506V310.642H252.507C253.219 310.642 253.792 311.222 253.792 311.93C253.792 312.643 253.219 313.215 252.507 313.215H249.506V316.215H252.507C254.875 316.215 256.793 314.296 256.793 311.93C256.793 309.563 254.875 307.644 252.507 307.644ZM235.407 323.505C238.999 323.505 242.094 321.402 243.54 318.357H247.365V323.505H249.506V318.357H252.507C256.06 318.357 258.938 315.479 258.938 311.93C258.938 308.379 256.06 305.5 252.507 305.5H247.365V313.215H244.314C243.691 308.855 239.941 305.5 235.407 305.5H224.855L214.358 323.505H216.862L219.862 318.357H230.649V323.505H235.407ZM261.939 311.93C261.939 317.137 257.715 321.357 252.507 321.357V326.5H244.366V322.488C242.163 324.951 238.969 326.5 235.407 326.5H227.648V321.357H221.585L218.585 326.5H209.061L223.059 302.5H235.407C238.969 302.5 242.163 304.054 244.366 306.516V302.5H252.507C257.715 302.5 261.939 306.724 261.939 311.93ZM227.648 307.644V313.215H222.862L221.114 316.215H230.649V307.644H227.648ZM242.266 314.5C242.266 318.288 239.194 321.357 235.407 321.357H232.791V318.357H235.407C237.539 318.357 239.267 316.633 239.267 314.5C239.267 312.372 237.539 310.642 235.407 310.642H232.791V307.644H235.407C239.194 307.644 242.266 310.714 242.266 314.5Z" fill="#EE2722"/>
</g>
<path d="M907 201.5C927.987 201.5 945 184.487 945 163.5C945 142.513 927.987 125.5 907 125.5C886.013 125.5 869 142.513 869 163.5C869 184.487 886.013 201.5 907 201.5Z" fill="black"/>
<path d="M880 163.5C880 167.433 881.532 171.205 884.258 173.987C886.985 176.768 890.683 178.331 894.538 178.331H896.615V172.822H894.538C892.115 172.822 889.79 171.84 888.077 170.092C886.363 168.343 885.4 165.972 885.4 163.5C885.4 161.028 886.363 158.657 888.077 156.908C889.79 155.16 892.115 154.178 894.538 154.178H899.523V182.992C899.523 183.715 899.663 184.431 899.934 185.1C900.206 185.768 900.603 186.375 901.105 186.887C901.606 187.398 902.201 187.804 902.857 188.081C903.512 188.358 904.214 188.5 904.923 188.5V148.669H894.538C890.683 148.669 886.985 150.232 884.258 153.013C881.532 155.795 880 159.567 880 163.5ZM919.462 148.669H917.385V154.178H919.462C921.885 154.178 924.21 155.16 925.923 156.908C927.637 158.657 928.6 161.028 928.6 163.5C928.6 165.972 927.637 168.343 925.923 170.092C924.21 171.84 921.885 172.822 919.462 172.822H914.477V144.008C914.477 142.548 913.908 141.146 912.895 140.113C911.883 139.08 910.509 138.5 909.077 138.5V178.331H919.462C921.371 178.331 923.261 177.947 925.025 177.202C926.789 176.456 928.392 175.364 929.742 173.987C931.092 172.61 932.163 170.975 932.893 169.175C933.624 167.376 934 165.448 934 163.5C934 161.552 933.624 159.624 932.893 157.825C932.163 156.025 931.092 154.39 929.742 153.013C928.392 151.636 926.789 150.544 925.025 149.798C923.261 149.053 921.371 148.669 919.462 148.669Z" fill="#2CA01C"/>
<path d="M951 62.5C967.569 62.5 981 49.0685 981 32.5C981 15.9315 967.569 2.5 951 2.5C934.431 2.5 921 15.9315 921 32.5C921 49.0685 934.431 62.5 951 62.5Z" fill="black"/>
<path d="M929.684 32.5C929.684 35.6053 930.894 38.5833 933.046 40.779C935.199 42.9748 938.118 44.2083 941.162 44.2083H942.802V39.8595H941.162C939.249 39.8595 937.414 39.0842 936.061 37.704C934.708 36.3238 933.947 34.4519 933.947 32.5C933.947 30.5482 934.708 28.6762 936.061 27.2961C937.414 25.9159 939.249 25.1405 941.162 25.1405H945.097V47.8881C945.097 48.4592 945.208 49.0247 945.422 49.5523C945.636 50.0799 945.95 50.5593 946.346 50.9631C946.742 51.367 947.212 51.6873 947.729 51.9058C948.246 52.1244 948.801 52.2369 949.36 52.2369V20.7917H941.162C938.118 20.7917 935.199 22.0253 933.046 24.221C930.894 26.4167 929.684 29.3948 929.684 32.5ZM960.838 20.7917H959.198V25.1405H960.838C962.752 25.1405 964.587 25.9159 965.94 27.2961C967.293 28.6762 968.053 30.5482 968.053 32.5C968.053 34.4519 967.293 36.3238 965.94 37.704C964.587 39.0842 962.752 39.8595 960.838 39.8595H956.903V17.112C956.903 15.9586 956.454 14.8525 955.654 14.0369C954.855 13.2214 953.77 12.7632 952.64 12.7632V44.2083H960.838C962.345 44.2083 963.838 43.9055 965.231 43.3171C966.623 42.7287 967.888 41.8663 968.954 40.779C970.02 39.6918 970.865 38.4011 971.442 36.9806C972.019 35.5601 972.316 34.0376 972.316 32.5C972.316 30.9625 972.019 29.44 971.442 28.0195C970.865 26.5989 970.02 25.3082 968.954 24.221C967.888 23.1338 966.623 22.2714 965.231 21.683C963.838 21.0946 962.345 20.7917 960.838 20.7917Z" fill="#2CA01C"/>
<path d="M1003 298.5C1019.57 298.5 1033 285.069 1033 268.5C1033 251.931 1019.57 238.5 1003 238.5C986.431 238.5 973 251.931 973 268.5C973 285.069 986.431 298.5 1003 298.5Z" fill="black"/>
<path d="M981.684 268.5C981.684 271.605 982.894 274.583 985.046 276.779C987.199 278.975 990.118 280.208 993.162 280.208H994.802V275.86H993.162C991.249 275.86 989.414 275.084 988.061 273.704C986.708 272.324 985.947 270.452 985.947 268.5C985.947 266.548 986.708 264.676 988.061 263.296C989.414 261.916 991.249 261.141 993.162 261.141H997.097V283.888C997.097 284.459 997.208 285.025 997.422 285.552C997.636 286.08 997.95 286.559 998.346 286.963C998.742 287.367 999.212 287.687 999.729 287.906C1000.25 288.124 1000.8 288.237 1001.36 288.237V256.792H993.162C990.118 256.792 987.199 258.025 985.046 260.221C982.894 262.417 981.684 265.395 981.684 268.5ZM1012.84 256.792H1011.2V261.141H1012.84C1014.75 261.141 1016.59 261.916 1017.94 263.296C1019.29 264.676 1020.05 266.548 1020.05 268.5C1020.05 270.452 1019.29 272.324 1017.94 273.704C1016.59 275.084 1014.75 275.86 1012.84 275.86H1008.9V253.112C1008.9 251.959 1008.45 250.852 1007.65 250.037C1006.85 249.221 1005.77 248.763 1004.64 248.763V280.208H1012.84C1014.35 280.208 1015.84 279.905 1017.23 279.317C1018.62 278.729 1019.89 277.866 1020.95 276.779C1022.02 275.692 1022.87 274.401 1023.44 272.981C1024.02 271.56 1024.32 270.038 1024.32 268.5C1024.32 266.962 1024.02 265.44 1023.44 264.019C1022.87 262.599 1022.02 261.308 1020.95 260.221C1019.89 259.134 1018.62 258.271 1017.23 257.683C1015.84 257.095 1014.35 256.792 1012.84 256.792Z" fill="#2CA01C"/>
<path d="M1031 174.5C1047.57 174.5 1061 161.069 1061 144.5C1061 127.931 1047.57 114.5 1031 114.5C1014.43 114.5 1001 127.931 1001 144.5C1001 161.069 1014.43 174.5 1031 174.5Z" fill="black"/>
<path d="M1009.68 144.5C1009.68 147.605 1010.89 150.583 1013.05 152.779C1015.2 154.975 1018.12 156.208 1021.16 156.208H1022.8V151.86H1021.16C1019.25 151.86 1017.41 151.084 1016.06 149.704C1014.71 148.324 1013.95 146.452 1013.95 144.5C1013.95 142.548 1014.71 140.676 1016.06 139.296C1017.41 137.916 1019.25 137.141 1021.16 137.141H1025.1V159.888C1025.1 160.459 1025.21 161.025 1025.42 161.552C1025.64 162.08 1025.95 162.559 1026.35 162.963C1026.74 163.367 1027.21 163.687 1027.73 163.906C1028.25 164.124 1028.8 164.237 1029.36 164.237V132.792H1021.16C1018.12 132.792 1015.2 134.025 1013.05 136.221C1010.89 138.417 1009.68 141.395 1009.68 144.5ZM1040.84 132.792H1039.2V137.141H1040.84C1042.75 137.141 1044.59 137.916 1045.94 139.296C1047.29 140.676 1048.05 142.548 1048.05 144.5C1048.05 146.452 1047.29 148.324 1045.94 149.704C1044.59 151.084 1042.75 151.86 1040.84 151.86H1036.9V129.112C1036.9 127.959 1036.45 126.852 1035.65 126.037C1034.85 125.221 1033.77 124.763 1032.64 124.763V156.208H1040.84C1042.35 156.208 1043.84 155.905 1045.23 155.317C1046.62 154.729 1047.89 153.866 1048.95 152.779C1050.02 151.692 1050.87 150.401 1051.44 148.981C1052.02 147.56 1052.32 146.038 1052.32 144.5C1052.32 142.962 1052.02 141.44 1051.44 140.019C1050.87 138.599 1050.02 137.308 1048.95 136.221C1047.89 135.134 1046.62 134.271 1045.23 133.683C1043.84 133.095 1042.35 132.792 1040.84 132.792Z" fill="#2CA01C"/>
<path d="M422 632.5C438.569 632.5 452 619.069 452 602.5C452 585.931 438.569 572.5 422 572.5C405.431 572.5 392 585.931 392 602.5C392 619.069 405.431 632.5 422 632.5Z" fill="black"/>
<path d="M400.684 602.5C400.684 605.605 401.894 608.583 404.046 610.779C406.199 612.975 409.118 614.208 412.162 614.208H413.802V609.86H412.162C410.249 609.86 408.414 609.084 407.061 607.704C405.708 606.324 404.947 604.452 404.947 602.5C404.947 600.548 405.708 598.676 407.061 597.296C408.414 595.916 410.249 595.141 412.162 595.141H416.097V617.888C416.097 618.459 416.208 619.025 416.422 619.552C416.636 620.08 416.95 620.559 417.346 620.963C417.742 621.367 418.212 621.687 418.729 621.906C419.246 622.124 419.801 622.237 420.36 622.237V590.792H412.162C409.118 590.792 406.199 592.025 404.046 594.221C401.894 596.417 400.684 599.395 400.684 602.5ZM431.838 590.792H430.198V595.141H431.838C433.752 595.141 435.587 595.916 436.94 597.296C438.293 598.676 439.053 600.548 439.053 602.5C439.053 604.452 438.293 606.324 436.94 607.704C435.587 609.084 433.752 609.86 431.838 609.86H427.903V587.112C427.903 585.959 427.454 584.852 426.654 584.037C425.855 583.221 424.77 582.763 423.64 582.763V614.208H431.838C433.345 614.208 434.838 613.905 436.231 613.317C437.623 612.729 438.888 611.866 439.954 610.779C441.02 609.692 441.865 608.401 442.442 606.981C443.019 605.56 443.316 604.038 443.316 602.5C443.316 600.962 443.019 599.44 442.442 598.019C441.865 596.599 441.02 595.308 439.954 594.221C438.888 593.134 437.623 592.271 436.231 591.683C434.838 591.095 433.345 590.792 431.838 590.792Z" fill="#2CA01C"/>
<path d="M216 636.5C232.569 636.5 246 623.069 246 606.5C246 589.931 232.569 576.5 216 576.5C199.431 576.5 186 589.931 186 606.5C186 623.069 199.431 636.5 216 636.5Z" fill="black"/>
<path d="M194.684 606.5C194.684 609.605 195.893 612.583 198.046 614.779C200.198 616.975 203.118 618.208 206.162 618.208H207.802V613.86H206.162C204.249 613.86 202.413 613.084 201.06 611.704C199.707 610.324 198.947 608.452 198.947 606.5C198.947 604.548 199.707 602.676 201.06 601.296C202.413 599.916 204.249 599.141 206.162 599.141H210.097V621.888C210.097 622.459 210.207 623.025 210.422 623.552C210.636 624.08 210.95 624.559 211.346 624.963C211.742 625.367 212.212 625.687 212.729 625.906C213.246 626.124 213.8 626.237 214.36 626.237V594.792H206.162C203.118 594.792 200.198 596.025 198.046 598.221C195.893 600.417 194.684 603.395 194.684 606.5ZM225.838 594.792H224.198V599.141H225.838C227.751 599.141 229.587 599.916 230.94 601.296C232.293 602.676 233.053 604.548 233.053 606.5C233.053 608.452 232.293 610.324 230.94 611.704C229.587 613.084 227.751 613.86 225.838 613.86H221.903V591.112C221.903 589.959 221.454 588.852 220.654 588.037C219.855 587.221 218.77 586.763 217.64 586.763V618.208H225.838C227.345 618.208 228.838 617.905 230.23 617.317C231.623 616.729 232.888 615.866 233.954 614.779C235.02 613.692 235.865 612.401 236.442 610.981C237.019 609.56 237.316 608.038 237.316 606.5C237.316 604.962 237.019 603.44 236.442 602.019C235.865 600.599 235.02 599.308 233.954 598.221C232.888 597.134 231.623 596.271 230.23 595.683C228.838 595.095 227.345 594.792 225.838 594.792Z" fill="#2CA01C"/>
<path d="M318 561.5C338.987 561.5 356 544.487 356 523.5C356 502.513 338.987 485.5 318 485.5C297.013 485.5 280 502.513 280 523.5C280 544.487 297.013 561.5 318 561.5Z" fill="black"/>
<path d="M291 523.5C291 527.433 292.532 531.205 295.258 533.987C297.985 536.768 301.683 538.331 305.538 538.331H307.615V532.822H305.538C303.115 532.822 300.79 531.84 299.077 530.092C297.363 528.343 296.4 525.972 296.4 523.5C296.4 521.028 297.363 518.657 299.077 516.908C300.79 515.16 303.115 514.178 305.538 514.178H310.523V542.992C310.523 543.715 310.663 544.431 310.934 545.1C311.206 545.768 311.603 546.375 312.105 546.887C312.606 547.398 313.201 547.804 313.857 548.081C314.512 548.358 315.214 548.5 315.923 548.5V508.669H305.538C301.683 508.669 297.985 510.232 295.258 513.013C292.532 515.795 291 519.567 291 523.5ZM330.462 508.669H328.385V514.178H330.462C332.885 514.178 335.21 515.16 336.923 516.908C338.637 518.657 339.6 521.028 339.6 523.5C339.6 525.972 338.637 528.343 336.923 530.092C335.21 531.84 332.885 532.822 330.462 532.822H325.477V504.008C325.477 502.548 324.908 501.146 323.895 500.113C322.883 499.08 321.509 498.5 320.077 498.5V538.331H330.462C332.371 538.331 334.261 537.947 336.025 537.202C337.789 536.456 339.392 535.364 340.742 533.987C342.092 532.61 343.163 530.975 343.893 529.175C344.624 527.376 345 525.448 345 523.5C345 521.552 344.624 519.624 343.893 517.825C343.163 516.025 342.092 514.39 340.742 513.013C339.392 511.636 337.789 510.544 336.025 509.798C334.261 509.053 332.371 508.669 330.462 508.669Z" fill="#2CA01C"/>
<g clip-path="url(#clip0_450_4378)">
<mask id="mask1_450_4378" style="mask-type:luminance" maskUnits="userSpaceOnUse" x="301" y="103" width="110" height="111">
<path d="M301.274 103.685H410.795V213.206H301.274V103.685Z" fill="white"/>
</mask>
<g mask="url(#mask1_450_4378)">
<path d="M356 196.355C376.907 196.355 393.855 179.407 393.855 158.5C393.855 137.593 376.907 120.645 356 120.645C335.093 120.645 318.145 137.593 318.145 158.5C318.145 179.407 335.093 196.355 356 196.355Z" fill="black"/>
<path d="M336.266 158.39L342.726 151.914C342.94 151.696 343.06 151.407 343.06 151.1C343.06 150.462 342.54 149.943 341.902 149.943C341.59 149.943 341.299 150.065 341.079 150.287C341.078 150.289 334.624 156.739 334.624 156.739L328.141 150.278C327.922 150.062 327.631 149.943 327.324 149.943C326.686 149.943 326.166 150.461 326.166 151.099C326.166 151.411 326.291 151.703 326.514 151.923L332.973 158.381L326.517 164.85C326.29 165.073 326.166 165.366 326.166 165.678C326.166 166.317 326.686 166.835 327.324 166.835C327.632 166.835 327.923 166.716 328.141 166.497L334.614 160.033L341.063 166.474C341.292 166.71 341.587 166.836 341.902 166.836C342.54 166.836 343.059 166.317 343.059 165.678C343.059 165.37 342.94 165.081 342.722 164.862L336.266 158.39Z" fill="#1AB4D7"/>
<path d="M374.671 158.388C374.671 159.548 375.614 160.492 376.776 160.492C377.934 160.492 378.878 159.548 378.878 158.388C378.878 157.228 377.934 156.285 376.776 156.285C375.614 156.285 374.671 157.228 374.671 158.388Z" fill="#1AB4D7"/>
<path d="M370.682 158.389C370.682 155.031 373.414 152.298 376.773 152.298C380.131 152.298 382.864 155.031 382.864 158.389C382.864 161.747 380.131 164.479 376.773 164.479C373.414 164.479 370.682 161.747 370.682 158.389ZM368.285 158.389C368.285 163.069 372.093 166.876 376.773 166.876C381.453 166.876 385.263 163.069 385.263 158.389C385.263 153.709 381.453 149.901 376.773 149.901C372.093 149.901 368.285 153.709 368.285 158.389Z" fill="#1AB4D7"/>
<path d="M367.683 150.046L367.327 150.045C366.258 150.045 365.227 150.382 364.365 151.046C364.252 150.527 363.788 150.136 363.235 150.136C362.599 150.136 362.089 150.646 362.087 151.284C362.087 151.286 362.091 165.579 362.091 165.579C362.093 166.216 362.612 166.733 363.249 166.733C363.885 166.733 364.404 166.216 364.406 165.578C364.406 165.575 364.406 156.788 364.406 156.788C364.406 153.858 364.674 152.675 367.184 152.361C367.416 152.332 367.668 152.337 367.669 152.337C368.356 152.313 368.844 151.841 368.844 151.204C368.844 150.566 368.323 150.046 367.683 150.046Z" fill="#1AB4D7"/>
<path d="M345.458 156.992C345.458 156.96 345.46 156.927 345.462 156.895C346.134 154.238 348.539 152.272 351.405 152.272C354.305 152.272 356.733 154.287 357.37 156.992H345.458ZM359.741 156.773C359.242 154.412 357.949 152.472 355.98 151.226C353.102 149.399 349.302 149.5 346.522 151.477C344.255 153.09 342.946 155.729 342.946 158.447C342.946 159.129 343.028 159.817 343.199 160.494C344.055 163.862 346.951 166.411 350.403 166.834C351.427 166.958 352.424 166.899 353.457 166.631C354.344 166.415 355.202 166.056 355.993 165.549C356.814 165.021 357.5 164.325 358.165 163.492C358.178 163.476 358.192 163.463 358.205 163.447C358.666 162.875 358.58 162.062 358.074 161.674C357.646 161.346 356.929 161.213 356.365 161.936C356.243 162.109 356.108 162.287 355.959 162.465C355.51 162.961 354.953 163.441 354.286 163.814C353.437 164.268 352.469 164.527 351.441 164.533C348.074 164.495 346.272 162.145 345.631 160.468C345.52 160.154 345.433 159.829 345.373 159.495C345.365 159.432 345.359 159.372 345.357 159.316C346.053 159.316 357.439 159.314 357.439 159.314C359.095 159.28 359.987 158.11 359.741 156.773Z" fill="#1AB4D7"/>
</g>
</g>
<g clip-path="url(#clip1_450_4378)">
<mask id="mask2_450_4378" style="mask-type:luminance" maskUnits="userSpaceOnUse" x="715" y="422" width="110" height="111">
<path d="M715.274 422.685H824.795V532.206H715.274V422.685Z" fill="white"/>
</mask>
<g mask="url(#mask2_450_4378)">
<path d="M770 515.355C790.907 515.355 807.855 498.407 807.855 477.5C807.855 456.593 790.907 439.645 770 439.645C749.093 439.645 732.145 456.593 732.145 477.5C732.145 498.407 749.093 515.355 770 515.355Z" fill="black"/>
<path d="M750.266 477.39L756.726 470.914C756.94 470.696 757.06 470.407 757.06 470.1C757.06 469.462 756.54 468.943 755.902 468.943C755.59 468.943 755.299 469.065 755.079 469.287C755.078 469.289 748.624 475.739 748.624 475.739L742.141 469.278C741.922 469.062 741.631 468.943 741.324 468.943C740.686 468.943 740.166 469.461 740.166 470.099C740.166 470.411 740.291 470.703 740.514 470.923L746.973 477.381L740.517 483.85C740.29 484.073 740.166 484.366 740.166 484.678C740.166 485.317 740.686 485.835 741.324 485.835C741.632 485.835 741.923 485.716 742.141 485.497L748.614 479.033L755.063 485.474C755.292 485.71 755.587 485.836 755.902 485.836C756.54 485.836 757.059 485.317 757.059 484.678C757.059 484.37 756.94 484.081 756.722 483.862L750.266 477.39Z" fill="#1AB4D7"/>
<path d="M788.671 477.388C788.671 478.548 789.614 479.492 790.776 479.492C791.934 479.492 792.878 478.548 792.878 477.388C792.878 476.228 791.934 475.285 790.776 475.285C789.614 475.285 788.671 476.228 788.671 477.388Z" fill="#1AB4D7"/>
<path d="M784.682 477.389C784.682 474.031 787.414 471.298 790.773 471.298C794.131 471.298 796.864 474.031 796.864 477.389C796.864 480.747 794.131 483.479 790.773 483.479C787.414 483.479 784.682 480.747 784.682 477.389ZM782.285 477.389C782.285 482.069 786.093 485.876 790.773 485.876C795.453 485.876 799.263 482.069 799.263 477.389C799.263 472.709 795.453 468.901 790.773 468.901C786.093 468.901 782.285 472.709 782.285 477.389Z" fill="#1AB4D7"/>
<path d="M781.683 469.046L781.327 469.045C780.258 469.045 779.227 469.382 778.365 470.046C778.252 469.527 777.788 469.136 777.235 469.136C776.599 469.136 776.089 469.646 776.087 470.284C776.087 470.286 776.091 484.579 776.091 484.579C776.093 485.216 776.612 485.733 777.249 485.733C777.885 485.733 778.404 485.216 778.406 484.578C778.406 484.575 778.406 475.788 778.406 475.788C778.406 472.858 778.674 471.675 781.184 471.361C781.416 471.332 781.668 471.337 781.669 471.337C782.356 471.313 782.844 470.841 782.844 470.204C782.844 469.566 782.323 469.046 781.683 469.046Z" fill="#1AB4D7"/>
<path d="M759.458 475.992C759.458 475.96 759.46 475.927 759.462 475.895C760.134 473.238 762.539 471.272 765.405 471.272C768.305 471.272 770.733 473.287 771.37 475.992H759.458ZM773.741 475.773C773.242 473.412 771.949 471.472 769.98 470.226C767.102 468.399 763.302 468.5 760.522 470.477C758.255 472.09 756.946 474.729 756.946 477.447C756.946 478.129 757.028 478.817 757.199 479.494C758.055 482.862 760.951 485.411 764.403 485.834C765.427 485.958 766.424 485.899 767.457 485.631C768.344 485.415 769.202 485.056 769.993 484.549C770.814 484.021 771.5 483.325 772.165 482.492C772.178 482.476 772.192 482.463 772.205 482.447C772.666 481.875 772.58 481.062 772.074 480.674C771.646 480.346 770.929 480.213 770.365 480.936C770.243 481.109 770.108 481.287 769.959 481.465C769.51 481.961 768.953 482.441 768.286 482.814C767.437 483.268 766.469 483.527 765.441 483.533C762.074 483.495 760.272 481.145 759.631 479.468C759.52 479.154 759.433 478.829 759.373 478.495C759.365 478.432 759.359 478.372 759.357 478.316C760.053 478.316 771.439 478.314 771.439 478.314C773.095 478.28 773.987 477.11 773.741 475.773Z" fill="#1AB4D7"/>
</g>
</g>
<g clip-path="url(#clip2_450_4378)">
<mask id="mask3_450_4378" style="mask-type:luminance" maskUnits="userSpaceOnUse" x="138" y="85" width="88" height="87">
<path d="M138.795 85.2251H225.259V171.689H138.795V85.2251Z" fill="white"/>
</mask>
<g mask="url(#mask3_450_4378)">
<path d="M182 158.385C198.505 158.385 211.886 145.005 211.886 128.5C211.886 111.994 198.505 98.614 182 98.614C165.495 98.614 152.114 111.994 152.114 128.5C152.114 145.005 165.495 158.385 182 158.385Z" fill="black"/>
<path d="M166.42 128.414L171.52 123.301C171.689 123.128 171.784 122.9 171.784 122.658C171.784 122.154 171.374 121.744 170.87 121.744C170.624 121.744 170.394 121.841 170.22 122.016C170.219 122.017 165.124 127.11 165.124 127.11L160.006 122.009C159.833 121.838 159.604 121.744 159.361 121.744C158.857 121.744 158.447 122.154 158.447 122.657C158.447 122.903 158.545 123.134 158.721 123.308L163.821 128.406L158.724 133.513C158.545 133.689 158.447 133.92 158.447 134.167C158.447 134.671 158.857 135.08 159.361 135.08C159.604 135.08 159.834 134.986 160.006 134.814L165.116 129.71L170.207 134.795C170.388 134.982 170.621 135.081 170.87 135.081C171.373 135.081 171.783 134.671 171.783 134.167C171.783 133.924 171.689 133.695 171.518 133.523L166.42 128.414Z" fill="#1AB4D7"/>
<path d="M196.74 128.412C196.74 129.327 197.485 130.072 198.402 130.072C199.316 130.072 200.061 129.327 200.061 128.412C200.061 127.496 199.316 126.751 198.402 126.751C197.485 126.751 196.74 127.496 196.74 128.412Z" fill="#1AB4D7"/>
<path d="M193.591 128.412C193.591 125.761 195.748 123.603 198.4 123.603C201.051 123.603 203.208 125.761 203.208 128.412C203.208 131.064 201.051 133.22 198.4 133.22C195.748 133.22 193.591 131.064 193.591 128.412ZM191.699 128.412C191.699 132.107 194.705 135.112 198.4 135.112C202.095 135.112 205.102 132.107 205.102 128.412C205.102 124.718 202.095 121.711 198.4 121.711C194.705 121.711 191.699 124.718 191.699 128.412Z" fill="#1AB4D7"/>
<path d="M191.223 121.826L190.942 121.825C190.098 121.825 189.284 122.091 188.604 122.615C188.515 122.205 188.148 121.897 187.712 121.897C187.209 121.897 186.807 122.299 186.806 122.803C186.806 122.804 186.809 134.089 186.809 134.089C186.81 134.591 187.22 135 187.723 135C188.225 135 188.635 134.591 188.636 134.087C188.636 134.085 188.637 127.148 188.637 127.148C188.637 124.835 188.848 123.901 190.829 123.653C191.012 123.631 191.212 123.634 191.212 123.634C191.755 123.616 192.14 123.243 192.14 122.74C192.14 122.236 191.729 121.826 191.223 121.826Z" fill="#1AB4D7"/>
<path d="M173.677 127.309C173.677 127.284 173.679 127.258 173.68 127.233C174.211 125.135 176.11 123.583 178.372 123.583C180.661 123.583 182.578 125.174 183.082 127.309H173.677ZM184.953 127.137C184.559 125.273 183.538 123.741 181.984 122.758C179.712 121.315 176.712 121.395 174.517 122.956C172.727 124.229 171.694 126.312 171.694 128.458C171.694 128.996 171.759 129.539 171.894 130.074C172.57 132.733 174.856 134.746 177.581 135.079C178.39 135.177 179.177 135.131 179.992 134.919C180.692 134.749 181.37 134.465 181.995 134.065C182.643 133.648 183.184 133.099 183.709 132.441C183.719 132.429 183.73 132.418 183.741 132.405C184.105 131.954 184.037 131.312 183.637 131.006C183.3 130.747 182.733 130.642 182.288 131.213C182.192 131.349 182.085 131.49 181.967 131.63C181.613 132.022 181.173 132.401 180.647 132.695C179.976 133.053 179.212 133.258 178.4 133.263C175.742 133.233 174.32 131.378 173.814 130.053C173.726 129.806 173.658 129.55 173.61 129.285C173.604 129.236 173.599 129.188 173.598 129.144C174.147 129.144 183.136 129.143 183.136 129.143C184.443 129.115 185.147 128.192 184.953 127.137Z" fill="#1AB4D7"/>
</g>
</g>
<g clip-path="url(#clip3_450_4378)">
<mask id="mask4_450_4378" style="mask-type:luminance" maskUnits="userSpaceOnUse" x="201" y="-13" width="88" height="87">
<path d="M201.795 -12.7749H288.259V73.689H201.795V-12.7749Z" fill="white"/>
</mask>
<g mask="url(#mask4_450_4378)">
<path d="M245 60.3853C261.505 60.3853 274.886 47.0051 274.886 30.4996C274.886 13.9943 261.505 0.614021 245 0.614021C228.495 0.614021 215.114 13.9943 215.114 30.4996C215.114 47.0051 228.495 60.3853 245 60.3853Z" fill="black"/>
<path d="M229.42 30.4135L234.52 25.3007C234.689 25.1283 234.784 24.9002 234.784 24.6582C234.784 24.1539 234.374 23.7443 233.87 23.7443C233.624 23.7443 233.394 23.8406 233.22 24.0164C233.219 24.0174 228.124 29.1096 228.124 29.1096L223.006 24.0088C222.833 23.8383 222.604 23.7443 222.361 23.7443C221.857 23.7443 221.447 24.1537 221.447 24.6575C221.447 24.9032 221.545 25.1338 221.721 25.3076L226.821 30.4064L221.724 35.5128C221.545 35.6892 221.447 35.9203 221.447 36.1672C221.447 36.6714 221.857 37.0804 222.361 37.0804C222.604 37.0804 222.834 36.986 223.006 36.8135L228.116 31.71L233.207 36.7949C233.388 36.9816 233.621 37.0811 233.87 37.0811C234.373 37.0811 234.783 36.6714 234.783 36.1672C234.783 35.9239 234.689 35.6953 234.518 35.523L229.42 30.4135Z" fill="#1AB4D7"/>
<path d="M259.74 30.4117C259.74 31.3274 260.485 32.0723 261.402 32.0723C262.316 32.0723 263.061 31.3274 263.061 30.4117C263.061 29.4958 262.316 28.7511 261.402 28.7511C260.485 28.7511 259.74 29.4958 259.74 30.4117Z" fill="#1AB4D7"/>
<path d="M256.591 30.4124C256.591 27.7607 258.748 25.6032 261.4 25.6032C264.051 25.6032 266.208 27.7607 266.208 30.4124C266.208 33.0635 264.051 35.2201 261.4 35.2201C258.748 35.2201 256.591 33.0635 256.591 30.4124ZM254.699 30.4124C254.699 34.1067 257.705 37.1123 261.4 37.1123C265.095 37.1123 268.102 34.1067 268.102 30.4124C268.102 26.7177 265.095 23.7112 261.4 23.7112C257.705 23.7112 254.699 26.7177 254.699 30.4124Z" fill="#1AB4D7"/>
<path d="M254.223 23.8259L253.942 23.8251C253.098 23.8251 252.284 24.0912 251.604 24.6152C251.515 24.2052 251.148 23.8967 250.712 23.8967C250.209 23.8967 249.807 24.2993 249.806 24.8027C249.806 24.8045 249.809 36.0886 249.809 36.0886C249.81 36.5911 250.22 36.9995 250.723 36.9995C251.225 36.9995 251.635 36.5911 251.636 36.0875C251.636 36.0852 251.637 29.1481 251.637 29.1481C251.637 26.8352 251.848 25.9011 253.829 25.6535C254.012 25.6307 254.212 25.6343 254.212 25.6343C254.755 25.6157 255.14 25.2431 255.14 24.7396C255.14 24.2358 254.729 23.8259 254.223 23.8259Z" fill="#1AB4D7"/>
<path d="M236.677 29.3095C236.677 29.2845 236.679 29.2584 236.68 29.2327C237.211 27.1355 239.11 25.5835 241.372 25.5835C243.661 25.5835 245.578 27.1736 246.082 29.3095H236.677ZM247.953 29.1369C247.559 27.2725 246.538 25.7411 244.984 24.7576C242.712 23.3151 239.712 23.3949 237.517 24.9555C235.727 26.229 234.694 28.3122 234.694 30.4582C234.694 30.9963 234.759 31.5394 234.894 32.074C235.57 34.733 237.856 36.7459 240.581 37.0795C241.39 37.1774 242.177 37.1305 242.992 36.9194C243.692 36.749 244.37 36.465 244.995 36.0648C245.643 35.6481 246.184 35.0986 246.709 34.4409C246.719 34.4288 246.73 34.4181 246.741 34.4054C247.105 33.954 247.037 33.312 246.637 33.0056C246.3 32.747 245.733 32.6422 245.288 33.2129C245.192 33.3493 245.085 33.4897 244.967 33.6302C244.613 34.0217 244.173 34.4011 243.647 34.6953C242.976 35.0534 242.212 35.2581 241.4 35.2627C238.742 35.2331 237.32 33.3777 236.814 32.0534C236.726 31.8061 236.658 31.5496 236.61 31.2854C236.604 31.236 236.599 31.1883 236.598 31.1444C237.147 31.1444 246.136 31.1429 246.136 31.1429C247.443 31.1154 248.147 30.1924 247.953 29.1369Z" fill="#1AB4D7"/>
</g>
</g>
<g clip-path="url(#clip4_450_4378)">
<mask id="mask5_450_4378" style="mask-type:luminance" maskUnits="userSpaceOnUse" x="735" y="567" width="88" height="87">
<path d="M735.795 567.225H822.259V653.689H735.795V567.225Z" fill="white"/>
</mask>
<g mask="url(#mask5_450_4378)">
<path d="M779 640.385C795.505 640.385 808.885 627.005 808.885 610.5C808.885 593.994 795.505 580.614 779 580.614C762.494 580.614 749.114 593.994 749.114 610.5C749.114 627.005 762.494 640.385 779 640.385Z" fill="black"/>
<path d="M763.42 610.414L768.52 605.301C768.689 605.128 768.784 604.9 768.784 604.658C768.784 604.154 768.374 603.744 767.869 603.744C767.624 603.744 767.393 603.841 767.22 604.016C767.219 604.017 762.124 609.11 762.124 609.11L757.006 604.009C756.833 603.838 756.604 603.744 756.361 603.744C755.857 603.744 755.447 604.154 755.447 604.657C755.447 604.903 755.545 605.134 755.721 605.308L760.821 610.406L755.724 615.513C755.544 615.689 755.447 615.92 755.447 616.167C755.447 616.671 755.857 617.08 756.361 617.08C756.604 617.08 756.833 616.986 757.006 616.814L762.116 611.71L767.207 616.795C767.388 616.982 767.621 617.081 767.869 617.081C768.373 617.081 768.783 616.671 768.783 616.167C768.783 615.924 768.689 615.695 768.517 615.523L763.42 610.414Z" fill="#1AB4D7"/>
<path d="M793.74 610.412C793.74 611.327 794.485 612.072 795.401 612.072C796.316 612.072 797.061 611.327 797.061 610.412C797.061 609.496 796.316 608.751 795.401 608.751C794.485 608.751 793.74 609.496 793.74 610.412Z" fill="#1AB4D7"/>
<path d="M790.59 610.412C790.59 607.761 792.748 605.603 795.4 605.603C798.05 605.603 800.208 607.761 800.208 610.412C800.208 613.064 798.05 615.22 795.4 615.22C792.748 615.22 790.59 613.064 790.59 610.412ZM788.699 610.412C788.699 614.107 791.705 617.112 795.4 617.112C799.094 617.112 802.102 614.107 802.102 610.412C802.102 606.718 799.094 603.711 795.4 603.711C791.705 603.711 788.699 606.718 788.699 610.412Z" fill="#1AB4D7"/>
<path d="M788.223 603.826L787.942 603.825C787.098 603.825 786.284 604.091 785.604 604.615C785.514 604.205 785.148 603.897 784.712 603.897C784.209 603.897 783.807 604.299 783.805 604.803C783.805 604.804 783.808 616.089 783.808 616.089C783.81 616.591 784.22 617 784.722 617C785.225 617 785.635 616.591 785.636 616.087C785.636 616.085 785.636 609.148 785.636 609.148C785.636 606.835 785.848 605.901 787.829 605.653C788.012 605.631 788.211 605.634 788.212 605.634C788.754 605.616 789.14 605.243 789.14 604.74C789.14 604.236 788.728 603.826 788.223 603.826Z" fill="#1AB4D7"/>
<path d="M770.677 609.309C770.677 609.284 770.679 609.258 770.68 609.233C771.211 607.135 773.11 605.583 775.372 605.583C777.661 605.583 779.578 607.174 780.082 609.309H770.677ZM781.953 609.137C781.559 607.273 780.538 605.741 778.984 604.758C776.712 603.315 773.712 603.395 771.517 604.956C769.727 606.229 768.694 608.312 768.694 610.458C768.694 610.996 768.759 611.539 768.894 612.074C769.57 614.733 771.856 616.746 774.581 617.079C775.39 617.177 776.177 617.131 776.992 616.919C777.692 616.749 778.37 616.465 778.995 616.065C779.643 615.648 780.184 615.099 780.709 614.441C780.719 614.429 780.73 614.418 780.741 614.405C781.105 613.954 781.037 613.312 780.637 613.006C780.3 612.747 779.733 612.642 779.288 613.213C779.192 613.349 779.085 613.49 778.967 613.63C778.613 614.022 778.173 614.401 777.647 614.695C776.976 615.053 776.212 615.258 775.4 615.263C772.742 615.233 771.32 613.378 770.814 612.053C770.726 611.806 770.658 611.55 770.61 611.285C770.604 611.236 770.599 611.188 770.598 611.144C771.147 611.144 780.136 611.143 780.136 611.143C781.443 611.115 782.147 610.192 781.953 609.137Z" fill="#1AB4D7"/>
</g>
</g>
<g clip-path="url(#clip5_450_4378)">
<mask id="mask6_450_4378" style="mask-type:luminance" maskUnits="userSpaceOnUse" x="860" y="498" width="88" height="87">
<path d="M860.795 498.225H947.259V584.689H860.795V498.225Z" fill="white"/>
</mask>
<g mask="url(#mask6_450_4378)">
<path d="M904 571.385C920.505 571.385 933.885 558.005 933.885 541.5C933.885 524.994 920.505 511.614 904 511.614C887.494 511.614 874.114 524.994 874.114 541.5C874.114 558.005 887.494 571.385 904 571.385Z" fill="black"/>
<path d="M888.42 541.414L893.52 536.301C893.689 536.128 893.784 535.9 893.784 535.658C893.784 535.154 893.374 534.744 892.869 534.744C892.624 534.744 892.393 534.841 892.22 535.016C892.219 535.017 887.124 540.11 887.124 540.11L882.006 535.009C881.833 534.838 881.604 534.744 881.361 534.744C880.857 534.744 880.447 535.154 880.447 535.657C880.447 535.903 880.545 536.134 880.721 536.308L885.821 541.406L880.724 546.513C880.544 546.689 880.447 546.92 880.447 547.167C880.447 547.671 880.857 548.08 881.361 548.08C881.604 548.08 881.833 547.986 882.006 547.814L887.116 542.71L892.207 547.795C892.388 547.982 892.621 548.081 892.869 548.081C893.373 548.081 893.783 547.671 893.783 547.167C893.783 546.924 893.689 546.695 893.517 546.523L888.42 541.414Z" fill="#1AB4D7"/>
<path d="M918.74 541.412C918.74 542.327 919.485 543.072 920.401 543.072C921.316 543.072 922.061 542.327 922.061 541.412C922.061 540.496 921.316 539.751 920.401 539.751C919.485 539.751 918.74 540.496 918.74 541.412Z" fill="#1AB4D7"/>
<path d="M915.59 541.412C915.59 538.761 917.748 536.603 920.4 536.603C923.05 536.603 925.208 538.761 925.208 541.412C925.208 544.064 923.05 546.22 920.4 546.22C917.748 546.22 915.59 544.064 915.59 541.412ZM913.699 541.412C913.699 545.107 916.705 548.112 920.4 548.112C924.094 548.112 927.102 545.107 927.102 541.412C927.102 537.718 924.094 534.711 920.4 534.711C916.705 534.711 913.699 537.718 913.699 541.412Z" fill="#1AB4D7"/>
<path d="M913.223 534.826L912.942 534.825C912.098 534.825 911.284 535.091 910.604 535.615C910.514 535.205 910.148 534.897 909.712 534.897C909.209 534.897 908.807 535.299 908.805 535.803C908.805 535.804 908.808 547.089 908.808 547.089C908.81 547.591 909.22 548 909.722 548C910.225 548 910.635 547.591 910.636 547.087C910.636 547.085 910.636 540.148 910.636 540.148C910.636 537.835 910.848 536.901 912.829 536.653C913.012 536.631 913.211 536.634 913.212 536.634C913.754 536.616 914.14 536.243 914.14 535.74C914.14 535.236 913.728 534.826 913.223 534.826Z" fill="#1AB4D7"/>
<path d="M895.677 540.309C895.677 540.284 895.679 540.258 895.68 540.233C896.211 538.135 898.11 536.583 900.372 536.583C902.661 536.583 904.578 538.174 905.082 540.309H895.677ZM906.953 540.137C906.559 538.273 905.538 536.741 903.984 535.758C901.712 534.315 898.712 534.395 896.517 535.956C894.727 537.229 893.694 539.312 893.694 541.458C893.694 541.996 893.759 542.539 893.894 543.074C894.57 545.733 896.856 547.746 899.581 548.079C900.39 548.177 901.177 548.131 901.992 547.919C902.692 547.749 903.37 547.465 903.995 547.065C904.643 546.648 905.184 546.099 905.709 545.441C905.719 545.429 905.73 545.418 905.741 545.405C906.105 544.954 906.037 544.312 905.637 544.006C905.3 543.747 904.733 543.642 904.288 544.213C904.192 544.349 904.085 544.49 903.967 544.63C903.613 545.022 903.173 545.401 902.647 545.695C901.976 546.053 901.212 546.258 900.4 546.263C897.742 546.233 896.32 544.378 895.814 543.053C895.726 542.806 895.658 542.55 895.61 542.285C895.604 542.236 895.599 542.188 895.598 542.144C896.147 542.144 905.136 542.143 905.136 542.143C906.443 542.115 907.147 541.192 906.953 540.137Z" fill="#1AB4D7"/>
</g>
</g>
<rect y="194" width="73" height="73" rx="36.5" fill="black"/>
<path d="M50.8746 248.175C50.8742 248.774 50.635 249.349 50.2096 249.773C49.7842 250.196 49.2073 250.434 48.6057 250.435H24.396C23.7944 250.435 23.2173 250.197 22.7916 249.774C22.3659 249.35 22.1262 248.776 22.1252 248.177V212.888C22.125 212.591 22.1836 212.297 22.2976 212.022C22.4116 211.748 22.5789 211.498 22.7898 211.288C23.0007 211.078 23.2511 210.912 23.5267 210.798C23.8023 210.685 24.0977 210.626 24.396 210.626H39.9332L50.8746 221.739V248.175Z" fill="#23A566"/>
<path d="M41.1371 221.449L50.8745 230.718V221.674H42.249C41.8724 221.679 41.5011 221.586 41.1714 221.404L41.1371 221.449Z" fill="#1C8F5A"/>
<path d="M50.8748 221.721H42.2257C41.6241 221.721 41.0473 221.482 40.6219 221.059C40.1965 220.635 39.9573 220.061 39.9568 219.462V210.565L50.8748 221.721Z" fill="#8ED1B1"/>
<path fill-rule="evenodd" clip-rule="evenodd" d="M43.9519 243.096H28.9915V230.178H43.9519V243.096ZM37.4019 232.041V234.303H42.1133V232.045L37.4019 232.041ZM37.4019 235.727V237.887H42.1133V235.716L37.4019 235.727ZM37.4019 239.265V241.265H42.1133V239.254L37.4019 239.265ZM35.5524 241.254V239.254H30.8428V241.254H35.5524ZM35.5524 237.864V235.716H30.8428V237.875L35.5524 237.864ZM35.5524 234.326V232.041H30.8428V234.303L35.5524 234.326Z" fill="white"/>
<rect x="84.9998" y="396" width="73" height="73" rx="36.5" fill="black"/>
<path d="M109.019 430.366H106.728V438.256H109.019V430.366Z" fill="#EF7E19"/>
<path d="M113.035 426.65H110.744V438.264H113.035V426.65Z" fill="#EF7E19"/>
<path d="M117.043 426.65H114.752V438.264H117.043V426.65Z" fill="#EF7E19"/>
<path d="M107.886 426.5C107.13 426.5 106.516 427.114 106.516 427.87C106.516 428.626 107.13 429.24 107.886 429.24C108.642 429.24 109.256 428.626 109.256 427.87C109.256 427.508 109.114 427.161 108.846 426.894C108.602 426.65 108.248 426.5 107.886 426.5Z" fill="#EF7E19"/>
<path d="M100.767 429.728V426.744L103.83 428.996C104.468 429.469 104.901 430.138 105.075 430.909C104.39 430.091 103.46 429.744 102.83 429.728H100.767Z" fill="#F6B881"/>
<path d="M102.783 435.539C102.76 435.901 102.46 436.177 102.098 436.177H100.145V432.421H102.098C102.46 432.421 102.76 432.697 102.783 433.059V435.539ZM100.153 430.366V426.642H97.8777V438.256H102.649C103.287 438.256 103.917 438.004 104.374 437.547C104.83 437.09 105.082 436.476 105.082 435.823V432.799C105.082 431.461 103.996 430.382 102.649 430.382H100.153V430.366Z" fill="#EF7E19"/>
<path d="M123.571 438.484C121.232 438.484 120.657 437.027 120.657 435.736V432.901C120.657 431.334 121.492 430.146 123.547 430.146C125.571 430.146 126.295 431.106 126.295 432.413V433.075H125.106V432.523C125.106 431.752 124.712 431.161 123.586 431.161C122.287 431.161 121.901 431.846 121.901 432.909V435.539C121.901 436.586 122.334 437.429 123.61 437.429C124.728 437.429 125.13 436.901 125.13 436.114V435.586H126.319V436.161C126.295 437.484 125.5 438.484 123.571 438.484Z" fill="#CCCCCC"/>
<path d="M130.413 438.485C128.114 438.485 127.453 437.146 127.453 435.642V433.044C127.453 431.658 128.161 430.154 130.516 430.154C132.87 430.154 133.5 431.611 133.5 432.973V435.626C133.5 436.996 132.917 438.485 130.413 438.485ZM130.508 437.437C131.87 437.437 132.264 436.603 132.264 435.548V433.044C132.264 432.059 131.917 431.209 130.508 431.209C129.145 431.209 128.673 432.044 128.673 433.091V435.54C128.681 436.713 129.122 437.437 130.508 437.437Z" fill="#CCCCCC"/>
<path d="M134.862 438.256V430.382H135.949L135.988 431.476C136.334 430.799 137.098 430.161 138.311 430.161C139.555 430.161 140.193 430.799 140.452 431.547C140.925 430.665 141.838 430.138 142.823 430.161C144.594 430.161 145.122 431.429 145.122 432.657V438.256H143.917V432.98C143.917 432.004 143.665 431.224 142.484 431.224C142.004 431.201 141.531 431.366 141.185 431.697C140.838 432.02 140.618 432.476 140.61 432.965V438.28H139.382V432.87C139.382 432.012 139.13 431.217 137.949 431.217C137.468 431.193 136.996 431.374 136.649 431.697C136.303 432.02 136.082 432.476 136.075 432.949V438.264H134.862V438.256Z" fill="#CCCCCC"/>
<path d="M119.019 438.5C119.493 438.5 119.878 438.116 119.878 437.642C119.878 437.168 119.493 436.784 119.019 436.784C118.545 436.784 118.161 437.168 118.161 437.642C118.161 438.116 118.545 438.5 119.019 438.5Z" fill="#CCCCCC"/>
<rect x="631" y="63" width="73" height="73" rx="36.5" fill="black"/>
<g clip-path="url(#clip6_450_4378)">
<path d="M673 98.5L656 95.5V117.667C656 118.679 656.821 119.5 657.833 119.5H687.167C688.179 119.5 689 118.679 689 117.667V109.5L673 98.5Z" fill="#185C37"/>
<path d="M673 79.5H657.833C656.821 79.5 656 80.3207 656 81.333V89.5L673 99.5L682 102.5L689 99.5V89.5L673 79.5Z" fill="#21A366"/>
<path d="M656 89.5H673V99.5H656V89.5Z" fill="#107C41"/>
<path opacity="0.1" d="M668.167 87.5H656V112.5H668.167C669.178 112.497 669.997 111.678 670 110.667V89.333C669.997 88.322 669.178 87.5033 668.167 87.5Z" fill="black"/>
<path opacity="0.2" d="M667.167 88.5H656V113.5H667.167C668.178 113.497 668.997 112.678 669 111.667V90.333C668.997 89.322 668.178 88.5033 667.167 88.5Z" fill="black"/>
<path opacity="0.2" d="M667.167 88.5H656V111.5H667.167C668.178 111.497 668.997 110.678 669 109.667V90.333C668.997 89.322 668.178 88.5033 667.167 88.5Z" fill="black"/>
<path opacity="0.2" d="M666.167 88.5H656V111.5H666.167C667.178 111.497 667.997 110.678 668 109.667V90.333C667.997 89.322 667.178 88.5033 666.167 88.5Z" fill="black"/>
<path d="M647.833 88.5H666.167C667.179 88.5 668 89.3207 668 90.333V108.667C668 109.679 667.179 110.5 666.167 110.5H647.833C646.821 110.5 646 109.679 646 108.667V90.333C646 89.3207 646.821 88.5 647.833 88.5Z" fill="url(#paint0_linear_450_4378)"/>
<path d="M651.677 105.458L655.533 99.483L652 93.541H654.842L656.77 97.341C656.948 97.702 657.07 97.97 657.136 98.147H657.161C657.288 97.859 657.421 97.5793 657.561 97.308L659.622 93.543H662.231L658.608 99.45L662.323 105.458H659.547L657.32 101.287C657.215 101.11 657.126 100.923 657.054 100.73H657.021C656.956 100.919 656.869 101.1 656.763 101.27L654.47 105.458H651.677Z" fill="white"/>
<path d="M687.167 79.5H673V89.5H689V81.333C689 80.3207 688.179 79.5 687.167 79.5Z" fill="#33C481"/>
<path d="M673 99.5H689V109.5H673V99.5Z" fill="#107C41"/>
</g>
<rect x="919" y="369" width="73" height="73" rx="36.5" fill="black"/>
<g clip-path="url(#clip7_450_4378)">
<path d="M961 404.5L944 401.5V423.667C944 424.679 944.821 425.5 945.833 425.5H975.167C976.179 425.5 977 424.679 977 423.667V415.5L961 404.5Z" fill="#185C37"/>
<path d="M961 385.5H945.833C944.821 385.5 944 386.321 944 387.333V395.5L961 405.5L970 408.5L977 405.5V395.5L961 385.5Z" fill="#21A366"/>
<path d="M944 395.5H961V405.5H944V395.5Z" fill="#107C41"/>
<path opacity="0.1" d="M956.167 393.5H944V418.5H956.167C957.178 418.497 957.997 417.678 958 416.667V395.333C957.997 394.322 957.178 393.503 956.167 393.5Z" fill="black"/>
<path opacity="0.2" d="M955.167 394.5H944V419.5H955.167C956.178 419.497 956.997 418.678 957 417.667V396.333C956.997 395.322 956.178 394.503 955.167 394.5Z" fill="black"/>
<path opacity="0.2" d="M955.167 394.5H944V417.5H955.167C956.178 417.497 956.997 416.678 957 415.667V396.333C956.997 395.322 956.178 394.503 955.167 394.5Z" fill="black"/>
<path opacity="0.2" d="M954.167 394.5H944V417.5H954.167C955.178 417.497 955.997 416.678 956 415.667V396.333C955.997 395.322 955.178 394.503 954.167 394.5Z" fill="black"/>
<path d="M935.833 394.5H954.167C955.179 394.5 956 395.321 956 396.333V414.667C956 415.679 955.179 416.5 954.167 416.5H935.833C934.821 416.5 934 415.679 934 414.667V396.333C934 395.321 934.821 394.5 935.833 394.5Z" fill="url(#paint1_linear_450_4378)"/>
<path d="M939.677 411.458L943.533 405.483L940 399.541H942.842L944.77 403.341C944.948 403.702 945.07 403.97 945.136 404.147H945.161C945.288 403.859 945.421 403.579 945.561 403.308L947.622 399.543H950.231L946.608 405.45L950.323 411.458H947.547L945.32 407.287C945.215 407.11 945.126 406.923 945.054 406.73H945.021C944.956 406.919 944.869 407.1 944.763 407.27L942.47 411.458H939.677Z" fill="white"/>
<path d="M975.167 385.5H961V395.5H977V387.333C977 386.321 976.179 385.5 975.167 385.5Z" fill="#33C481"/>
<path d="M961 405.5H977V415.5H961V405.5Z" fill="#107C41"/>
</g>
<rect x="441" y="232" width="180" height="180" rx="90" fill="black"/>
<path d="M480.64 350.221C485.625 363.714 497.727 373.789 512.421 375.946C515.66 376.421 518.333 373.709 518.333 370.418V350.457C518.333 349.675 518.18 348.9 517.882 348.177C517.584 347.455 517.147 346.798 516.596 346.245C516.045 345.692 515.391 345.253 514.671 344.953C513.951 344.654 513.18 344.5 512.401 344.5H484.938C481.661 344.5 479.502 347.139 480.64 350.221Z" fill="#A259FF"/>
<path d="M531 371.394V330.201C531 327.66 533.071 325.6 535.625 325.6H577.036C579.752 325.6 581.91 327.919 581.645 330.608C579.279 354.568 560.121 373.625 536.034 375.978C533.332 376.242 531 374.095 531 371.394Z" fill="#0076F4"/>
<path d="M537.333 274.658V326.15C537.333 329.325 534.745 331.9 531.552 331.9H479.788C476.393 331.9 473.696 329.001 474.028 325.64C476.984 295.69 500.932 271.869 531.041 268.927C534.419 268.597 537.333 271.281 537.333 274.658Z" fill="#00A7E6"/>
<path d="M530.332 250C527.228 250.035 524.667 252.593 524.667 255.758V307.25C524.667 310.425 527.255 313 530.447 313H582.211C585.606 313 588.304 310.101 587.972 306.74C585.016 276.79 561.067 252.968 530.959 250.027C530.748 250.006 530.538 249.998 530.332 250ZM548.881 279.68C549.139 279.68 549.393 279.693 549.644 279.718C549.894 279.744 550.141 279.781 550.383 279.831C550.626 279.88 550.864 279.941 551.097 280.013C551.33 280.085 551.559 280.168 551.782 280.262C552.005 280.356 552.222 280.459 552.433 280.573C552.644 280.687 552.85 280.811 553.048 280.944C553.246 281.077 553.437 281.219 553.621 281.37C553.805 281.521 553.982 281.68 554.151 281.848C554.319 282.015 554.48 282.191 554.632 282.373C554.784 282.556 554.927 282.747 555.061 282.943C555.195 283.14 555.319 283.344 555.434 283.553C555.549 283.763 555.653 283.979 555.747 284.2C555.842 284.422 555.926 284.649 555.998 284.88C556.071 285.112 556.133 285.349 556.182 285.59C556.232 285.831 556.269 286.076 556.295 286.325C556.32 286.574 556.334 286.826 556.334 287.081C556.334 287.337 556.32 287.589 556.295 287.838C556.269 288.087 556.232 288.332 556.182 288.573C556.133 288.814 556.071 289.051 555.998 289.283C555.926 289.514 555.842 289.741 555.747 289.962C555.653 290.183 555.549 290.4 555.434 290.609C555.319 290.819 555.195 291.023 555.061 291.219C554.927 291.416 554.784 291.607 554.632 291.789C554.48 291.972 554.319 292.147 554.151 292.314C553.813 292.65 553.445 292.952 553.048 293.218C552.85 293.351 552.644 293.475 552.433 293.589C552.222 293.703 552.005 293.807 551.782 293.901C551.559 293.995 551.33 294.078 551.097 294.15C550.864 294.222 550.626 294.283 550.383 294.332C550.141 294.382 549.894 294.419 549.644 294.444C549.393 294.471 549.139 294.483 548.881 294.483C548.624 294.483 548.37 294.469 548.119 294.444C547.869 294.418 547.622 294.382 547.379 294.332C547.137 294.283 546.898 294.222 546.665 294.15C546.432 294.078 546.203 293.995 545.981 293.901C545.981 293.901 545.981 293.901 545.981 293.901C545.758 293.807 545.54 293.703 545.329 293.589C545.118 293.475 544.913 293.351 544.715 293.218C544.318 292.952 543.949 292.65 543.611 292.314C543.443 292.147 543.282 291.972 543.13 291.789C542.675 291.241 542.297 290.626 542.015 289.962C541.92 289.741 541.836 289.514 541.764 289.283C541.691 289.051 541.63 288.814 541.58 288.573C541.531 288.332 541.492 288.087 541.467 287.838C541.442 287.589 541.428 287.337 541.428 287.081C541.428 286.826 541.442 286.574 541.467 286.325C541.492 286.076 541.531 285.831 541.58 285.59C541.63 285.349 541.691 285.112 541.764 284.88C541.836 284.649 541.92 284.422 542.015 284.2C542.297 283.536 542.675 282.922 543.13 282.373C543.282 282.191 543.443 282.015 543.611 281.848C543.78 281.68 543.957 281.521 544.141 281.37C544.325 281.219 544.516 281.077 544.715 280.944C544.913 280.811 545.118 280.687 545.329 280.573C545.54 280.459 545.757 280.355 545.98 280.262C545.98 280.262 545.98 280.262 545.98 280.262C546.203 280.168 546.432 280.085 546.665 280.013C546.898 279.941 547.137 279.88 547.379 279.831C547.622 279.781 547.869 279.743 548.119 279.718C548.37 279.691 548.624 279.68 548.881 279.68Z" fill="#00CE88"/>
<defs>
<filter id="filter0_f_450_4378" x="253" y="49" width="544" height="544" filterUnits="userSpaceOnUse" color-interpolation-filters="sRGB">
<feFlood flood-opacity="0" result="BackgroundImageFix"/>
<feBlend mode="normal" in="SourceGraphic" in2="BackgroundImageFix" result="shape"/>
<feGaussianBlur stdDeviation="100" result="effect1_foregroundBlur_450_4378"/>
</filter>
<linearGradient id="paint0_linear_450_4378" x1="649.822" y1="87.0677" x2="664.178" y2="111.932" gradientUnits="userSpaceOnUse">
<stop stop-color="#18884F"/>
<stop offset="0.5" stop-color="#117E43"/>
<stop offset="1" stop-color="#0B6631"/>
</linearGradient>
<linearGradient id="paint1_linear_450_4378" x1="937.822" y1="393.068" x2="952.178" y2="417.932" gradientUnits="userSpaceOnUse">
<stop stop-color="#18884F"/>
<stop offset="0.5" stop-color="#117E43"/>
<stop offset="1" stop-color="#0B6631"/>
</linearGradient>
<clipPath id="clip0_450_4378">
<rect width="76" height="76" fill="white" transform="translate(318 120.5)"/>
</clipPath>
<clipPath id="clip1_450_4378">
<rect width="76" height="76" fill="white" transform="translate(732 439.5)"/>
</clipPath>
<clipPath id="clip2_450_4378">
<rect width="60" height="60" fill="white" transform="translate(152 98.5)"/>
</clipPath>
<clipPath id="clip3_450_4378">
<rect width="60" height="60" fill="white" transform="translate(215 0.5)"/>
</clipPath>
<clipPath id="clip4_450_4378">
<rect width="60" height="60" fill="white" transform="translate(749 580.5)"/>
</clipPath>
<clipPath id="clip5_450_4378">
<rect width="60" height="60" fill="white" transform="translate(874 511.5)"/>
</clipPath>
<clipPath id="clip6_450_4378">
<rect width="43" height="40" fill="white" transform="translate(646 79.5)"/>
</clipPath>
<clipPath id="clip7_450_4378">
<rect width="43" height="40" fill="white" transform="translate(934 385.5)"/>
</clipPath>
</defs>
</svg>
