<svg width="29" height="26" viewBox="0 0 29 26" fill="none" xmlns="http://www.w3.org/2000/svg">
<path d="M24.25 17.5105C23.4741 17.5145 22.7186 17.7591 22.0875 18.2105L19.025 16.398C19.1695 15.9495 19.2454 15.4817 19.25 15.0105C19.2464 13.9048 18.8764 12.8315 18.1979 11.9585C17.5194 11.0855 16.5706 10.462 15.5 10.1855V7.28553C16.334 6.99067 17.0369 6.41045 17.4845 5.64743C17.9321 4.88442 18.0956 3.98774 17.946 3.11587C17.7964 2.244 17.3434 1.45308 16.6671 0.882903C15.9907 0.312725 15.1346 0 14.25 0C13.3654 0 12.5093 0.312725 11.8329 0.882903C11.1566 1.45308 10.7036 2.244 10.554 3.11587C10.4044 3.98774 10.5679 4.88442 11.0155 5.64743C11.4631 6.41045 12.166 6.99067 13 7.28553V10.1855C11.9294 10.462 10.9806 11.0855 10.3021 11.9585C9.62359 12.8315 9.25359 13.9048 9.25 15.0105C9.25465 15.4817 9.3305 15.9495 9.475 16.398L6.4125 18.2105C5.78144 17.7591 5.02589 17.5145 4.25 17.5105C3.50832 17.5105 2.7833 17.7305 2.16661 18.1425C1.54993 18.5546 1.06928 19.1402 0.785453 19.8255C0.501625 20.5107 0.427362 21.2647 0.572057 21.9921C0.716751 22.7196 1.0739 23.3877 1.59835 23.9122C2.1228 24.4366 2.79098 24.7938 3.51841 24.9385C4.24584 25.0832 4.99984 25.0089 5.68506 24.7251C6.37029 24.4413 6.95596 23.9606 7.36801 23.3439C7.78007 22.7272 8 22.0022 8 21.2605C7.99538 20.922 7.94492 20.5856 7.85 20.2605L10.725 18.548C11.6618 19.4793 12.9291 20.002 14.25 20.002C15.5709 20.002 16.8382 19.4793 17.775 18.548L20.65 20.2605C20.4406 21.0175 20.4741 21.8212 20.7459 22.5581C21.0177 23.295 21.514 23.928 22.1648 24.3678C22.8156 24.8075 23.5881 25.0318 24.3732 25.0089C25.1583 24.9861 25.9164 24.7173 26.5406 24.2405C27.1648 23.7637 27.6235 23.103 27.852 22.3515C28.0805 21.6 28.0673 20.7958 27.8142 20.0522C27.5611 19.3087 27.081 18.6633 26.4415 18.2073C25.802 17.7513 25.0354 17.5076 24.25 17.5105ZM4.25 22.5105C4.00277 22.5105 3.7611 22.4372 3.55554 22.2999C3.34998 22.1625 3.18976 21.9673 3.09515 21.7389C3.00054 21.5105 2.97579 21.2591 3.02402 21.0167C3.07225 20.7742 3.1913 20.5515 3.36612 20.3767C3.54093 20.2018 3.76366 20.0828 4.00614 20.0346C4.24861 19.9863 4.49995 20.0111 4.72836 20.1057C4.95676 20.2003 5.15199 20.3605 5.28934 20.5661C5.42669 20.7716 5.5 21.0133 5.5 21.2605C5.5 21.5921 5.36831 21.91 5.13388 22.1444C4.89946 22.3788 4.58152 22.5105 4.25 22.5105ZM14.25 2.51053C14.4972 2.51053 14.7389 2.58385 14.9445 2.7212C15.15 2.85855 15.3102 3.05377 15.4049 3.28218C15.4995 3.51059 15.5242 3.76192 15.476 4.0044C15.4278 4.24687 15.3087 4.4696 15.1339 4.64442C14.9591 4.81923 14.7363 4.93828 14.4939 4.98652C14.2514 5.03475 14.0001 5.00999 13.7716 4.91538C13.5432 4.82077 13.348 4.66056 13.2107 4.455C13.0733 4.24944 13 4.00776 13 3.76053C13 3.42901 13.1317 3.11107 13.3661 2.87665C13.6005 2.64223 13.9185 2.51053 14.25 2.51053ZM14.25 17.5105C13.7555 17.5105 13.2722 17.3639 12.8611 17.0892C12.45 16.8145 12.1295 16.4241 11.9403 15.9672C11.7511 15.5104 11.7016 15.0078 11.798 14.5228C11.8945 14.0379 12.1326 13.5924 12.4822 13.2428C12.8319 12.8931 13.2773 12.655 13.7623 12.5586C14.2472 12.4621 14.7499 12.5116 15.2067 12.7008C15.6635 12.8901 16.054 13.2105 16.3287 13.6216C16.6034 14.0327 16.75 14.5161 16.75 15.0105C16.75 15.6736 16.4866 16.3095 16.0178 16.7783C15.5489 17.2471 14.913 17.5105 14.25 17.5105ZM24.25 22.5105C24.0028 22.5105 23.7611 22.4372 23.5555 22.2999C23.35 22.1625 23.1898 21.9673 23.0951 21.7389C23.0005 21.5105 22.9758 21.2591 23.024 21.0167C23.0723 20.7742 23.1913 20.5515 23.3661 20.3767C23.5409 20.2018 23.7637 20.0828 24.0061 20.0346C24.2486 19.9863 24.4999 20.0111 24.7284 20.1057C24.9568 20.2003 25.152 20.3605 25.2893 20.5661C25.4267 20.7716 25.5 21.0133 25.5 21.2605C25.5 21.5921 25.3683 21.91 25.1339 22.1444C24.8995 22.3788 24.5815 22.5105 24.25 22.5105Z" fill="white"/>
<path d="M19.3 15C19.3 17.7614 17.0615 20 14.3 20C11.5386 20 9.30005 17.7614 9.30005 15C9.30005 12.2386 11.5386 10 14.3 10C17.0615 10 19.3 12.2386 19.3 15Z" fill="#00CE88"/>
</svg>
