<svg width="24" height="24" viewBox="0 0 24 24" fill="none" xmlns="http://www.w3.org/2000/svg">
<path d="M20.25 11.2499H12.75L11.25 11.2498L3.75 11.2499C3.55109 11.2499 3.36032 11.3289 3.21967 11.4696C3.07902 11.6102 3 11.801 3 11.9999C3 12.1988 3.07902 12.3896 3.21967 12.5302C3.36032 12.6709 3.55109 12.7499 3.75 12.7499H11.25C11.25 12.7499 12.5511 12.7499 12.75 12.7499H20.25C20.4489 12.7499 20.6397 12.6709 20.7803 12.5302C20.921 12.3896 21 12.1988 21 11.9999C21 11.801 20.921 11.6102 20.7803 11.4696C20.6397 11.3289 20.4489 11.2499 20.25 11.2499Z" fill="white"/>
</svg>
