<svg width="31" height="30" viewBox="0 0 31 30" fill="none" xmlns="http://www.w3.org/2000/svg">
<path d="M24.5 16.5035C24.5 22.0264 20.0228 26.5035 14.5 26.5035C8.97715 26.5035 4.5 22.0264 4.5 16.5035C4.5 10.9807 8.97715 6.50351 14.5 6.50351M24.5 16.5035H14.5V6.50351M24.5 16.5035H27C27 16.5035 27.8986 11.1518 23.875 7.12851C20.5155 3.76926 14.5 4.00351 14.5 4.00351V6.50351" stroke="white" stroke-width="2" stroke-linejoin="round"/>
<path d="M14.5 16.5035V6.50351V4.00351C14.5 4.00351 20.5155 3.76926 23.875 7.12851C27.8986 11.1518 27 16.5035 27 16.5035H24.5H14.5Z" fill="#0076F4" stroke="#0076F4" stroke-width="2" stroke-linejoin="round"/>
</svg>
