<svg width="44" height="44" viewBox="0 0 44 44" fill="none" xmlns="http://www.w3.org/2000/svg">
<rect width="44" height="44" rx="4" fill="#CECEFE"/>
<path d="M32.5267 21.7196V21.3396C32.4749 19.9683 32.0344 18.6401 31.2567 17.5096C31.1489 17.353 30.9857 17.2432 30.8001 17.2024C30.6145 17.1615 30.4202 17.1927 30.2567 17.2896C30.1754 17.3396 30.1048 17.4053 30.0491 17.4829C29.9934 17.5605 29.9537 17.6483 29.9323 17.7414C29.9109 17.8345 29.9082 17.9309 29.9244 18.025C29.9406 18.1191 29.9754 18.209 30.0267 18.2896C30.6291 19.1788 30.9751 20.2167 31.0267 21.2896V21.6796C31.0267 23.0196 31.0267 24.1796 30.0767 24.9496C29.8889 25.1202 29.6675 25.2496 29.4267 25.3296C29.3504 25.34 29.273 25.34 29.1967 25.3296H28.7567C27.8093 25.2495 26.8676 25.1126 25.9367 24.9196L24.8267 24.6996C23.5314 24.4249 22.1823 24.5721 20.9767 25.1196L20.7667 25.2496C20.6801 25.3055 20.5899 25.3556 20.4967 25.3996H20.4367C20.3121 25.4465 20.1799 25.4703 20.0467 25.4696C19.7124 25.4812 19.3797 25.4192 19.0721 25.2878C18.7644 25.1565 18.4895 24.9591 18.2667 24.7096C18.0751 24.4445 17.9458 24.1395 17.8887 23.8174C17.8315 23.4953 17.848 23.1644 17.9367 22.8496C17.968 22.7293 17.9689 22.6032 17.9393 22.4825C17.9098 22.3618 17.8507 22.2503 17.7674 22.1581C17.6841 22.0659 17.5792 21.9958 17.4622 21.9542C17.3451 21.9126 17.2195 21.9007 17.0967 21.9196C16.4511 22.0267 15.7887 21.9611 15.1767 21.7296C14.5421 21.5482 13.9662 21.2033 13.5067 20.7296C12.3067 19.1396 13.2767 17.2096 14.6867 16.0996C15.4627 15.5041 16.3218 15.0256 17.2367 14.6796C17.3279 14.6463 17.4116 14.5951 17.4828 14.529C17.5539 14.463 17.6112 14.3834 17.6513 14.2949C17.6913 14.2064 17.7133 14.1109 17.716 14.0138C17.7186 13.9167 17.7019 13.8201 17.6667 13.7296C17.6294 13.6357 17.5737 13.5503 17.503 13.4782C17.4323 13.4061 17.3479 13.3489 17.2548 13.3098C17.1617 13.2707 17.0618 13.2505 16.9608 13.2505C16.8598 13.2504 16.7598 13.2705 16.6667 13.3096C15.6163 13.7235 14.6325 14.2895 13.7467 14.9896C11.7467 16.5796 10.5867 19.3796 12.2967 21.6496C12.9327 22.3597 13.7585 22.8732 14.6767 23.1296C15.219 23.3272 15.7897 23.4353 16.3667 23.4496C16.3206 24.2689 16.5768 25.0766 17.0867 25.7196C17.4422 26.1256 17.8804 26.4507 18.372 26.6732C18.8636 26.8957 19.3971 27.0104 19.9367 27.0096H20.0667H20.1867C20.4153 27.4808 20.7593 27.8867 21.1867 28.1896C21.4067 28.3396 21.6467 28.4796 21.8767 28.6196C22.5529 28.9522 23.1497 29.4262 23.6267 30.0096C23.7967 30.2796 23.9367 30.5596 24.0767 30.8396C24.2167 31.1196 24.2867 31.2396 24.3967 31.4296C24.6119 31.8858 24.9607 32.2659 25.3967 32.5196C25.6195 32.6335 25.8665 32.6918 26.1167 32.6896C26.3627 32.6955 26.6061 32.6379 26.8233 32.5223C27.0406 32.4067 27.2243 32.237 27.3567 32.0296C27.5052 31.7468 27.571 31.428 27.5467 31.1096V30.8496C27.5467 30.2696 27.4667 29.5996 27.7867 29.3096C27.9342 29.1916 28.0877 29.0815 28.2467 28.9796C28.7221 28.7231 29.1194 28.3431 29.3967 27.8796C29.5774 27.5426 29.7216 27.1872 29.8267 26.8196C30.247 26.6855 30.6375 26.4716 30.9767 26.1896C32.5867 24.9196 32.5467 23.2296 32.5267 21.7196ZM28.1067 27.1896C27.9398 27.4145 27.7245 27.599 27.4767 27.7296C27.2406 27.8662 27.0195 28.0271 26.8167 28.2096C26.4911 28.5725 26.2554 29.0068 26.1286 29.4775C26.0018 29.9483 25.9875 30.4423 26.0867 30.9196V31.1596C25.9305 31.0318 25.8042 30.8714 25.7167 30.6896L25.4267 30.1496C25.2709 29.8056 25.0939 29.4716 24.8967 29.1496C24.3022 28.3767 23.5441 27.7449 22.6767 27.2996L22.0467 26.9196C21.8741 26.7964 21.7279 26.64 21.6167 26.4596L21.7067 26.3996C22.6003 26.0343 23.5842 25.9505 24.5267 26.1596L25.6067 26.3696L26.9867 26.6296L27.4067 26.6996C27.6967 26.6996 27.9767 26.7896 28.2667 26.8196L28.1067 27.1896ZM17.5067 16.2896L19.2667 14.4696V12.0596C19.2667 11.8607 19.3457 11.6699 19.4864 11.5292C19.627 11.3886 19.8178 11.3096 20.0167 11.3096C20.2156 11.3096 20.4064 11.3886 20.547 11.5292C20.6877 11.6699 20.7667 11.8607 20.7667 12.0596V14.7696C20.764 14.9601 20.6889 15.1424 20.5567 15.2796L18.6867 17.1996C18.8696 17.5011 18.9665 17.8469 18.9667 18.1996C18.9667 18.5951 18.8494 18.9818 18.6296 19.3107C18.4099 19.6396 18.0975 19.896 17.7321 20.0473C17.3666 20.1987 16.9645 20.2383 16.5765 20.1611C16.1886 20.084 15.8322 19.8935 15.5525 19.6138C15.2728 19.3341 15.0823 18.9777 15.0051 18.5898C14.928 18.2018 14.9676 17.7997 15.1189 17.4342C15.2703 17.0688 15.5267 16.7564 15.8556 16.5366C16.1845 16.3169 16.5711 16.1996 16.9667 16.1996C17.15 16.2047 17.3317 16.235 17.5067 16.2896ZM22.0167 19.1596C22.2239 19.1619 22.4296 19.1956 22.6267 19.2596L23.2667 18.5496V12.0596C23.2667 11.8607 23.3457 11.6699 23.4864 11.5292C23.627 11.3886 23.8178 11.3096 24.0167 11.3096C24.2156 11.3096 24.4064 11.3886 24.547 11.5292C24.6877 11.6699 24.7667 11.8607 24.7667 12.0596V18.8296C24.7664 19.0108 24.6987 19.1855 24.5767 19.3196L23.7767 20.2096C23.933 20.4911 24.0155 20.8076 24.0167 21.1296C24.0167 21.5251 23.8994 21.9118 23.6796 22.2407C23.4599 22.5696 23.1475 22.826 22.7821 22.9773C22.4166 23.1287 22.0145 23.1683 21.6265 23.0911C21.2386 23.014 20.8822 22.8235 20.6025 22.5438C20.3228 22.2641 20.1323 21.9077 20.0551 21.5198C19.978 21.1318 20.0176 20.7297 20.1689 20.3642C20.3203 19.9988 20.5767 19.6864 20.9056 19.4666C21.2345 19.2469 21.6211 19.1296 22.0167 19.1296V19.1596ZM26.0167 22.1096C26.0234 21.717 26.1455 21.3351 26.3678 21.0114C26.5901 20.6878 26.9027 20.4367 27.2667 20.2896V12.0596C27.2667 11.8607 27.3457 11.6699 27.4864 11.5292C27.627 11.3886 27.8178 11.3096 28.0167 11.3096C28.2156 11.3096 28.4064 11.3886 28.547 11.5292C28.6877 11.6699 28.7667 11.8607 28.7667 12.0596V20.2896C29.1307 20.4367 29.4433 20.6878 29.6656 21.0114C29.8879 21.3351 30.01 21.717 30.0167 22.1096C30.0167 22.64 29.806 23.1487 29.4309 23.5238C29.0558 23.8989 28.5471 24.1096 28.0167 24.1096C27.4863 24.1096 26.9776 23.8989 26.6025 23.5238C26.2274 23.1487 26.0167 22.64 26.0167 22.1096Z" fill="black"/>
</svg>
