<svg width="24" height="24" viewBox="0 0 24 24" fill="none" xmlns="http://www.w3.org/2000/svg">
<path fill-rule="evenodd" clip-rule="evenodd" d="M11.6953 2.31464C11.8893 2.22845 12.1106 2.22845 12.3045 2.31464L21.3045 6.31464C21.5754 6.43502 21.7499 6.70361 21.7499 7C21.7499 7.29639 21.5754 7.56498 21.3045 7.68536L12.3045 11.6854C12.1106 11.7715 11.8893 11.7715 11.6953 11.6854L2.69534 7.68536C2.42449 7.56498 2.24994 7.29639 2.24994 7C2.24994 6.70361 2.42449 6.43502 2.69534 6.31464L11.6953 2.31464ZM4.8466 7L11.9999 10.1793L19.1533 7L11.9999 3.82074L4.8466 7ZM2.31458 11.6954C2.48281 11.3169 2.92603 11.1464 3.30455 11.3146L11.9999 15.1793L20.6953 11.3146C21.0739 11.1464 21.5171 11.3169 21.6853 11.6954C21.8535 12.0739 21.6831 12.5171 21.3045 12.6854L12.3045 16.6854C12.1106 16.7715 11.8893 16.7715 11.6953 16.6854L2.69534 12.6854C2.31683 12.5171 2.14636 12.0739 2.31458 11.6954ZM3.30455 16.3146C2.92603 16.1464 2.48281 16.3169 2.31458 16.6954C2.14636 17.0739 2.31683 17.5171 2.69534 17.6854L11.6953 21.6854C11.8893 21.7715 12.1106 21.7715 12.3045 21.6854L21.3045 17.6854C21.6831 17.5171 21.8535 17.0739 21.6853 16.6954C21.5171 16.3169 21.0739 16.1464 20.6953 16.3146L11.9999 20.1793L3.30455 16.3146Z" fill="black"/>
</svg>
