<svg width="20" height="20" viewBox="0 0 20 20" fill="none" xmlns="http://www.w3.org/2000/svg">
<path fill-rule="evenodd" clip-rule="evenodd" d="M10 0.25C9.58579 0.25 9.25 0.585786 9.25 1V10C9.25 10.4142 9.58579 10.75 10 10.75H19C19.4142 10.75 19.75 10.4142 19.75 10C19.75 4.61522 15.3848 0.25 10 0.25ZM10.75 9.25V1.78363C14.7079 2.14029 17.8597 5.29215 18.2164 9.25H10.75ZM7.28156 2.20815C7.67266 2.07171 7.87911 1.64406 7.74267 1.25296C7.60624 0.861865 7.17859 0.655418 6.78749 0.791852C6.40209 0.926297 6.02776 1.08422 5.66623 1.26389C2.45765 2.85841 0.25 6.17071 0.25 10C0.25 15.3848 4.61522 19.75 10 19.75C14.2464 19.75 17.8569 17.0358 19.195 13.2499C19.333 12.8594 19.1284 12.4309 18.7378 12.2929C18.3473 12.1548 17.9188 12.3595 17.7808 12.7501C16.6478 15.9554 13.5909 18.25 10 18.25C5.44365 18.25 1.75 14.5564 1.75 10C1.75 6.76186 3.61547 3.95804 6.33377 2.60716C6.63948 2.45524 6.95589 2.32176 7.28156 2.20815Z" fill="black"/>
</svg>
